<svg width="42" height="32" viewBox="0 0 42 32" fill="none" xmlns="http://www.w3.org/2000/svg">
<path d="M21.1444 3.70149C19.9565 4.41791 18.7686 5.21393 17.5807 6.08955C16.3929 6.96517 15.2842 7.8806 14.2547 8.83582C13.3043 9.79105 12.4332 10.7861 11.6413 11.8209C10.9286 12.8557 10.4534 13.8507 10.2158 14.806C12.354 15.2836 14.0567 16.3184 15.3238 17.9104C16.67 19.5025 17.3432 21.2537 17.3432 23.1642C17.3432 25.6318 16.5116 27.7413 14.8486 29.4925C13.1856 31.1642 11.2057 32 8.90916 32C6.375 32 4.2368 31.1642 2.49457 29.4925C0.831522 27.7413 0 25.592 0 23.0448C0 20.8955 0.554348 18.7463 1.66304 16.597C2.85093 14.3682 4.35559 12.2189 6.17702 10.1493C7.99845 8.0796 10.0179 6.16915 12.2352 4.41791C14.5318 2.66667 16.7888 1.19403 19.0062 0L21.1444 3.70149ZM42 3.70149C40.8121 4.41791 39.6242 5.21393 38.4363 6.08955C37.2484 6.96517 36.1397 7.8806 35.1102 8.83582C34.1599 9.79105 33.2888 10.7861 32.4969 11.8209C31.7842 12.8557 31.309 13.8507 31.0714 14.806C33.2096 15.2836 34.9123 16.3184 36.1793 17.9104C37.5256 19.5025 38.1988 21.2537 38.1988 23.1642C38.1988 25.6318 37.3672 27.7413 35.7042 29.4925C34.0411 31.1642 32.0613 32 29.7648 32C27.2306 32 25.0924 31.1642 23.3502 29.4925C21.6871 27.7413 20.8556 25.592 20.8556 23.0448C20.8556 20.8955 21.4099 18.7463 22.5186 16.597C23.7065 14.3682 25.2112 12.2189 27.0326 10.1493C28.854 8.0796 30.8734 6.16915 33.0908 4.41791C35.3874 2.66667 37.6444 1.19403 39.8618 0L42 3.70149Z" fill="#15bbd5"/>
</svg>
